<?xml version="1.0" encoding="iso-8859-1"?>
<!-- Generator: Adobe Illustrator 19.0.0, SVG Export Plug-In . SVG Version: 6.00 Build 0)  -->
<svg version="1.1" id="Layer_1" xmlns="http://www.w3.org/2000/svg" xmlns:xlink="http://www.w3.org/1999/xlink" x="0px" y="0px"
	 viewBox="0 0 370 370" style="enable-background:new 0 0 370 370;" xml:space="preserve">
<g id="XMLID_520_">
	<path id="XMLID_521_" d="M245.002,279.999H124.998c-8.27,0-14.998-6.733-14.998-15.009c0-8.266,6.729-14.99,14.998-14.99h60.001
		c0.45,0,0.9-0.027,1.35-0.068c0.14-0.012,0.278-0.028,0.417-0.044c0.325-0.039,0.648-0.088,0.972-0.148
		c0.129-0.024,0.261-0.043,0.389-0.07c0.403-0.086,0.803-0.189,1.199-0.308c0.156-0.047,0.309-0.103,0.462-0.155
		c0.261-0.088,0.52-0.181,0.775-0.284c0.166-0.066,0.332-0.134,0.494-0.206c0.268-0.118,0.53-0.247,0.792-0.382
		c0.124-0.064,0.251-0.121,0.372-0.189c0.334-0.184,0.664-0.379,0.986-0.59c0.023-0.016,0.083-0.054,0.16-0.106
		c0.01-0.007,0.02-0.013,0.03-0.02c1.594-1.059,12.454-8.415,26.016-21.047c28.965-26.983,63.492-71.174,63.492-128.465
		C282.905,43.926,238.984,0,184.999,0c-53.984,0-97.904,43.926-97.904,97.918c0,54.157,31.17,96.458,56.786,122.082h-18.883
		C100.187,220,80,240.183,80,264.99c0,24.818,20.187,45.009,44.998,45.009h120.004c8.27,0,14.998,6.733,14.998,15.01
		c0,8.266-6.729,14.991-14.998,14.991H95c-8.284,0-15,6.716-15,15s6.716,15,15,15h150.002C269.814,370,290,349.817,290,325.009
		C290,300.19,269.814,279.999,245.002,279.999z M184.999,30c37.443,0,67.906,30.468,67.906,67.918
		c0,46.502-29.334,83.59-53.941,106.514c-5.332,4.967-10.175,8.991-13.967,11.966c-19.68-15.449-67.902-59.345-67.902-118.48
		C117.095,60.468,147.557,30,184.999,30z"/>
	<circle id="XMLID_524_" cx="184.999" cy="97.905" r="33"/>
</g>
<g>
</g>
<g>
</g>
<g>
</g>
<g>
</g>
<g>
</g>
<g>
</g>
<g>
</g>
<g>
</g>
<g>
</g>
<g>
</g>
<g>
</g>
<g>
</g>
<g>
</g>
<g>
</g>
<g>
</g>
</svg>
