<?xml version="1.0" encoding="iso-8859-1"?>
<!-- Generator: Adobe Illustrator 18.0.0, SVG Export Plug-In . SVG Version: 6.00 Build 0)  -->
<!DOCTYPE svg PUBLIC "-//W3C//DTD SVG 1.1//EN" "http://www.w3.org/Graphics/SVG/1.1/DTD/svg11.dtd">
<svg version="1.1" id="Capa_1" xmlns="http://www.w3.org/2000/svg" xmlns:xlink="http://www.w3.org/1999/xlink" x="0px" y="0px"
	 viewBox="0 0 338.203 338.203" style="enable-background:new 0 0 338.203 338.203;" xml:space="preserve">
<g>
	<path d="M169.102,0C75.858,0,0,75.858,0,169.102s75.858,169.102,169.102,169.102s169.102-75.858,169.102-169.102
		S262.345,0,169.102,0z M169.102,308.203C92.4,308.203,30,245.803,30,169.102S92.4,30,169.102,30s139.102,62.4,139.102,139.102
		S245.803,308.203,169.102,308.203z"/>
	<path d="M170.445,148.139c-9.012-7.582-36.24-28.066-58.86-44.921c-1.99-1.482-4.766-1.282-6.523,0.475
		c-1.755,1.755-1.956,4.532-0.473,6.522c16.859,22.623,37.345,49.852,44.921,58.856c0.232,4.786,2.154,9.507,5.811,13.162
		c7.811,7.811,20.475,7.811,28.285,0c7.811-7.809,7.811-20.473,0-28.283C179.95,150.295,175.232,148.373,170.445,148.139z"/>
	<path d="M54.777,217.863c1.424,3.295,3.014,6.569,4.726,9.733l16.713-9.034c-1.447-2.681-2.795-5.454-4.002-8.244L54.777,217.863z"
		/>
	<path d="M68.246,95.465l15.381,11.154c1.789-2.466,3.707-4.883,5.701-7.183L74.975,86.987
		C72.621,89.702,70.355,92.555,68.246,95.465z"/>
	<path d="M120.057,75.057l-8.844-16.818c-3.172,1.668-6.318,3.502-9.348,5.45l10.275,15.983
		C114.705,78.021,117.371,76.469,120.057,75.057z"/>
	<path d="M69.6,133.313l-17.914-6.328c-1.195,3.385-2.258,6.869-3.154,10.353l18.398,4.739
		C67.689,139.127,68.588,136.179,69.6,133.313z"/>
	<path d="M272.811,149.028l18.676-3.489c-0.66-3.537-1.482-7.084-2.447-10.541l-18.303,5.103
		C271.553,143.027,272.252,146.031,272.811,149.028z"/>
	<path d="M63.654,172.08l-18.99,0.622c0.119,3.593,0.395,7.225,0.824,10.789l18.865-2.27C63.988,178.2,63.754,175.126,63.654,172.08
		z"/>
	<path d="M268.506,93.526l-15.164,11.45c1.836,2.431,3.586,4.972,5.203,7.55l16.1-10.092
		C272.736,99.392,270.67,96.396,268.506,93.526z"/>
	<path d="M262.145,218.262l16.748,8.973c1.699-3.171,3.277-6.453,4.691-9.758l-17.465-7.477
		C264.92,212.795,263.584,215.576,262.145,218.262z"/>
	<path d="M157.533,63.606l-2.055-18.887c-3.574,0.388-7.174,0.938-10.699,1.639l3.697,18.638
		C151.461,64.402,154.508,63.937,157.533,63.606z"/>
	<path d="M274.547,171.713c-0.094,3.055-0.32,6.133-0.672,9.151l18.871,2.21c0.416-3.557,0.682-7.182,0.793-10.781L274.547,171.713z
		"/>
	<path d="M187.701,64.626c3,0.533,6.01,1.204,8.945,1.995l4.943-18.346c-3.469-0.934-7.021-1.726-10.561-2.355L187.701,64.626z"/>
	<path d="M224.322,78.575c2.592,1.595,5.146,3.324,7.592,5.142l11.33-15.252c-2.889-2.146-5.902-4.188-8.961-6.07L224.322,78.575z"
		/>
</g>
<g>
</g>
<g>
</g>
<g>
</g>
<g>
</g>
<g>
</g>
<g>
</g>
<g>
</g>
<g>
</g>
<g>
</g>
<g>
</g>
<g>
</g>
<g>
</g>
<g>
</g>
<g>
</g>
<g>
</g>
</svg>
