<?xml version="1.0" encoding="iso-8859-1"?>
<!-- Generator: Adobe Illustrator 19.0.0, SVG Export Plug-In . SVG Version: 6.00 Build 0)  -->
<svg version="1.1" id="Layer_1" xmlns="http://www.w3.org/2000/svg" xmlns:xlink="http://www.w3.org/1999/xlink" x="0px" y="0px"
	 viewBox="0 0 512.004 512.004" style="enable-background:new 0 0 512.004 512.004;" xml:space="preserve">
<g>
	<g>
		<rect x="239.312" y="69.57" width="33.391" height="89.042"/>
	</g>
</g>
<g>
	<g>
		
			<rect x="89.778" y="131.509" transform="matrix(0.7071 -0.7071 0.7071 0.7071 -93.2864 126.846)" width="33.391" height="89.041"/>
	</g>
</g>
<g>
	<g>
		<rect x="0.008" y="308.871" width="89.042" height="33.391"/>
	</g>
</g>
<g>
	<g>
		<rect y="409.044" width="512.004" height="33.391"/>
	</g>
</g>
<g>
	<g>
		<rect x="422.962" y="308.871" width="89.041" height="33.391"/>
	</g>
</g>
<g>
	<g>
		
			<rect x="361.014" y="159.343" transform="matrix(0.7071 -0.7071 0.7071 0.7071 -5.6994 338.3162)" width="89.039" height="33.391"/>
	</g>
</g>
<g>
	<g>
		<path d="M256.004,203.137c-67.618,0-122.433,54.816-122.433,122.433c0,20.04,4.816,38.954,13.352,55.651h218.163
			c8.536-16.698,13.352-35.611,13.352-55.651C378.438,257.952,323.622,203.137,256.004,203.137z"/>
	</g>
</g>
<g>
</g>
<g>
</g>
<g>
</g>
<g>
</g>
<g>
</g>
<g>
</g>
<g>
</g>
<g>
</g>
<g>
</g>
<g>
</g>
<g>
</g>
<g>
</g>
<g>
</g>
<g>
</g>
<g>
</g>
</svg>
